<svg width="249" height="28" viewBox="0 0 249 28" fill="none" xmlns="http://www.w3.org/2000/svg">
<path d="M2.16 24.5V3.08H17.64C24.27 3.08 27.84 6.65 27.84 13.79C27.84 22.22 22.86 24.5 16.71 24.5H2.16ZM9.3 7.88V19.7H15.27C19.35 19.7 20.46 16.7 20.46 13.76C20.46 9.77 18.51 7.88 14.7 7.88H9.3ZM29.4267 24.5V20.39L42.9267 7.88H30.3567V3.08H52.4967V7.28L39.0867 19.7H52.2867V24.5H29.4267Z" fill="#C98264"/>
<path d="M56.16 24.5V3.08H66.6L71.49 17.21H71.55L76.44 3.08H86.88V24.5H80.16V8.48H80.1L74.46 24.5H68.58L62.94 8.48H62.88V24.5H56.16ZM90.0891 13.79C90.0891 4.91 96.4791 2.42 104.039 2.42C111.599 2.42 117.989 4.91 117.989 13.79C117.989 22.67 111.599 25.16 104.039 25.16C96.4791 25.16 90.0891 22.67 90.0891 13.79ZM97.6491 13.79C97.6491 18.29 100.229 20.36 104.039 20.36C107.879 20.36 110.429 18.29 110.429 13.79C110.429 9.32 107.879 7.22 104.039 7.22C100.229 7.22 97.6491 9.32 97.6491 13.79ZM120.899 16.94V3.08H128.039V15.77C128.039 19.25 129.659 20.36 132.929 20.36C136.199 20.36 137.819 19.25 137.819 15.77V3.08H144.959V16.94C144.959 22.85 140.519 25.16 132.929 25.16C125.339 25.16 120.899 22.85 120.899 16.94ZM166.943 24.5V15.53H156.113V24.5H148.973V3.08H156.113V10.73H166.943V3.08H174.083V24.5H166.943ZM175.416 24.5L184.716 3.08H193.446L202.656 24.5H195.006L193.716 21.02H184.356L183.066 24.5H175.416ZM192.036 16.58L189.066 8.48H189.006L186.036 16.58H192.036ZM203.963 24.5V3.08H214.403L219.293 17.21H219.353L224.243 3.08H234.683V24.5H227.963V8.48H227.903L222.263 24.5H216.383L210.743 8.48H210.683V24.5H203.963ZM239.092 24.5V3.08H246.232V24.5H239.092Z" fill="white"/>
</svg>
