<svg width="256" height="256" viewBox="0 0 256 256" fill="none" xmlns="http://www.w3.org/2000/svg">
<g clip-path="url(#clip0_662_207)">
<path d="M210.251 35.878L23.923 88.432C22.3555 88.8741 20.9602 89.7842 19.9237 91.0405C18.8873 92.2968 18.2589 93.8395 18.1227 95.4625C17.9865 97.0855 18.3489 98.7114 19.1615 100.123C19.9741 101.534 21.1981 102.664 22.67 103.362L108.281 143.914C109.951 144.705 111.295 146.049 112.086 147.719L152.639 233.33C153.336 234.802 154.466 236.026 155.877 236.839C157.289 237.651 158.915 238.014 160.537 237.877C162.16 237.741 163.703 237.113 164.96 236.076C166.216 235.04 167.126 233.645 167.568 232.077L220.122 45.7493C220.508 44.3806 220.522 42.9338 220.163 41.5577C219.804 40.1817 219.085 38.9263 218.079 37.9207C217.074 36.9152 215.818 36.1958 214.442 35.8368C213.066 35.4777 211.619 35.492 210.251 35.878Z" stroke="black" stroke-width="8" stroke-linecap="round" stroke-linejoin="round"/>
<path d="M110.863 145.137L156.118 99.882" stroke="black" stroke-width="8" stroke-linecap="round" stroke-linejoin="round"/>
</g>
<defs>
<clipPath id="clip0_662_207">
<rect width="256" height="256" fill="white"/>
</clipPath>
</defs>
</svg>
