<svg width="36" height="37" viewBox="0 0 36 37" fill="none" xmlns="http://www.w3.org/2000/svg">
<g clip-path="url(#clip0_144_155)">
<path d="M35.9826 18.8461C35.9826 17.3303 35.8602 16.2241 35.5951 15.0769H18.3584V21.9188H28.4759C28.272 23.6191 27.1705 26.1798 24.7227 27.9004L24.6884 28.1295L30.1383 32.3694L30.5159 32.4072C33.9835 29.191 35.9826 24.459 35.9826 18.8461Z" fill="black"/>
<path d="M18.3584 36.8729C23.3151 36.8729 27.4764 35.234 30.5159 32.4072L24.7227 27.9004C23.1724 28.9861 21.0917 29.7441 18.3584 29.7441C13.5036 29.7441 9.38315 26.528 7.91432 22.0828L7.69902 22.1012L2.03212 26.5054L1.95801 26.7123C4.97695 32.7348 11.1781 36.8729 18.3584 36.8729Z" fill="#161F2B"/>
<path d="M7.91452 22.0828C7.52695 20.9356 7.30266 19.7064 7.30266 18.4364C7.30266 17.1663 7.52695 15.9372 7.89412 14.7901L7.88386 14.5458L2.14594 10.0708L1.9582 10.1604C0.713953 12.6596 0 15.4661 0 18.4364C0 21.4068 0.713953 24.2131 1.9582 26.7123L7.91452 22.0828Z" fill="#FB4E05"/>
<path d="M18.3584 7.12871C21.8057 7.12871 24.1311 8.62411 25.457 9.87377L30.6382 4.79348C27.4561 1.82317 23.3152 0 18.3584 0C11.1781 0 4.97695 4.13793 1.95801 10.1605L7.89393 14.7901C9.38315 10.3449 13.5036 7.12871 18.3584 7.12871Z" fill="#C98264"/>
</g>
<defs>
<clipPath id="clip0_144_155">
<rect width="36" height="37" fill="white"/>
</clipPath>
</defs>
</svg>
